# xmcd
#
# Track frame offsets: 
#        150
#        28789
#        51617
#        71433
#        96052
#        127101
#        147684
#        167819
#
# Disc length: 2582 seconds
#
# Revision: 1
# Processed by: cddbd v1.5.2PL0 Copyright (c) Steve Scherf et al.
# Submitted via: ExactAudioCopy v0.99pb5
#
DISCID=7c0a1408
DTITLE=Nati y su Charanga - A Base De Salsa
DYEAR=1982
DGENRE=Salsa
TTITLE0=De Que Te Quejas
TTITLE1=Vas A Acabar Conmigo
TTITLE2=No Hay Pa' Nadie
TTITLE3=Me Siento Bien (Improviso)
TTITLE4=Pa La Ocha Tambo
TTITLE5=Ya No Te Quiero
TTITLE6=Saludando (Llegaron Los Charangueros)
TTITLE7=Que Esta Pasando
EXTD=YEAR: 1982
EXTT0=
EXTT1=
EXTT2=
EXTT3=
EXTT4=
EXTT5=
EXTT6=
EXTT7=
PLAYORDER=
